<?xml version="1.0" encoding="UTF-8" standalone="no"?>
<!DOCTYPE svg PUBLIC "-//W3C//DTD SVG 1.1//EN" "http://www.w3.org/Graphics/SVG/1.1/DTD/svg11.dtd">
<svg width="100%" height="100%" viewBox="0 0 46 40" version="1.1" xmlns="http://www.w3.org/2000/svg" xmlns:xlink="http://www.w3.org/1999/xlink" xml:space="preserve" xmlns:serif="http://www.serif.com/" style="fill-rule:evenodd;clip-rule:evenodd;stroke-linejoin:round;stroke-miterlimit:2;">
    <g transform="matrix(0.0896861,0,0,0.0896861,0,-2.95964)">
        <path d="M471,262.813C493.945,260.781 512,241.465 512,218L512,78C512,53.187 491.813,33 467,33L318,33C293.187,33 273,53.187 273,78L273,137L86,137C61.187,137 41,157.187 41,182L41,362C41,367.258 41.915,372.305 43.58,377L27,377C12.112,377 0,389.112 0,404C0,445.355 33.645,479 75,479L437,479C478.355,479 512,445.355 512,404C512,389.112 499.888,377 485,377L468.42,377C470.085,372.305 471,367.258 471,362L471,262.813ZM303,78C303,69.729 309.729,63 318,63L467,63C475.271,63 482,69.729 482,78L482,218C482,226.271 475.271,233 467,233L328,233C325.188,233 322.434,233.79 320.05,235.28L289.806,254.183L302.368,212.31C302.787,210.912 303,209.46 303,208L303,78ZM437,449L75,449C51.195,449 31.649,430.419 30.099,407L481.901,407C480.351,430.419 460.805,449 437,449ZM143,264C143,254.626 150.626,247 160,247C169.374,247 177,254.626 177,264C177,273.374 169.374,281 160,281C150.626,281 143,273.374 143,264ZM135,328C135,318.944 146.682,311 160,311C167.142,311 174.023,313.228 178.879,317.113C181.166,318.942 185,322.788 185,328L185,377L135,377L135,328ZM215,377L215,328C215,315.03 208.666,302.523 197.62,293.687C197.372,293.488 197.113,293.302 196.861,293.108C203.201,285.096 207,274.986 207,264C207,238.084 185.916,217 160,217C134.084,217 113,238.084 113,264C113,274.999 116.808,285.118 123.16,293.134C112.016,301.741 105,314.183 105,328L105,377L86,377C77.729,377 71,370.271 71,362L71,182C71,173.729 77.729,167 86,167L273,167L273,205.799L261.071,245.562C257.448,257.638 261.583,270.384 271.606,278.032C277.005,282.152 283.378,284.234 289.781,284.234C295.265,284.234 300.772,282.706 305.704,279.623L332.302,263L441,263L441,362C441,370.271 434.271,377 426,377L215,377Z" style="fill:rgb(180,25,6);fill-rule:nonzero;"/>
    </g>
</svg>
