<?xml version="1.0" encoding="UTF-8" standalone="no"?>
<!DOCTYPE svg PUBLIC "-//W3C//DTD SVG 1.1//EN" "http://www.w3.org/Graphics/SVG/1.1/DTD/svg11.dtd">
<svg width="100%" height="100%" viewBox="0 0 45 40" version="1.1" xmlns="http://www.w3.org/2000/svg" xmlns:xlink="http://www.w3.org/1999/xlink" xml:space="preserve" xmlns:serif="http://www.serif.com/" style="fill-rule:evenodd;clip-rule:evenodd;stroke-linejoin:round;stroke-miterlimit:2;">
    <g transform="matrix(0.0865801,0,0,0.0865801,0,-2.1645)">
        <path d="M485,385L468.42,385C470.085,380.305 471,375.258 471,370L471,190C471,165.187 450.813,145 426,145L335,145L335,55L369,55L369,72C369,80.284 375.716,87 384,87C392.284,87 399,80.284 399,72L399,40C399,31.716 392.284,25 384,25L128,25C119.716,25 113,31.716 113,40C113,48.284 119.716,55 128,55L177,55L177,145L86,145C61.187,145 41,165.187 41,190L41,370C41,375.258 41.915,380.305 43.58,385L27,385C12.112,385 0,397.112 0,412C0,453.355 33.645,487 75,487L437,487C478.355,487 512,453.355 512,412C512,397.112 499.888,385 485,385ZM426,175C434.271,175 441,181.729 441,190L441,370C441,378.271 434.271,385 426,385L380.512,385C376.394,364.77 366.382,324.435 346.661,289.324C346.42,288.821 346.156,288.325 345.853,287.842C345.795,287.749 345.727,287.667 345.667,287.575C334.658,268.391 320.701,250.913 303.166,239.335C322.475,224.919 335,201.895 335,176L335,175L426,175ZM162.204,385C165.492,370.273 171.393,348.014 180.805,325.867C182.083,322.859 183.384,319.949 184.706,317.13L241,352.314L241,385L162.204,385ZM256,255C277.269,255 296.208,267.072 312.566,290.958L256,326.311L199.433,290.957C215.789,267.073 234.727,255 256,255ZM207,176L207,127L305,127L305,176C305,203.019 283.019,225 256,225C228.981,225 207,203.019 207,176ZM271,352.314L327.293,317.131C328.545,319.8 329.778,322.55 330.992,325.389C340.49,347.617 346.464,370.135 349.787,384.999L271,384.999L271,352.314ZM305,55L305,97L207,97L207,55L305,55ZM71,370L71,190C71,181.729 77.729,175 86,175L177,175L177,176C177,201.895 189.525,224.919 208.834,239.335C191.298,250.913 177.342,268.392 166.332,287.576C166.272,287.667 166.204,287.749 166.146,287.842C165.844,288.326 165.579,288.821 165.338,289.324C145.617,324.434 135.605,364.769 131.487,385L86,385C77.729,385 71,378.271 71,370ZM437,457L75,457C51.195,457 31.649,438.419 30.099,415L481.901,415C480.351,438.419 460.805,457 437,457Z" style="fill:rgb(180,25,6);fill-rule:nonzero;"/>
    </g>
</svg>